<svg xmlns="http://www.w3.org/2000/svg" viewBox="0 0 24 24">
  <path fill="#4285F4" d="M23.45 12.255c0-.815-.073-1.6-.21-2.352H12v4.448h6.19c-.267 1.45-1.087 2.686-2.31 3.51v2.886h3.74c2.19-2.022 3.46-5.005 3.46-8.542z"/>
  <path fill="#34A853" d="M12 24c3.105 0 5.708-1.03 7.61-2.786l-3.74-2.886c-1.035.695-2.358 1.106-3.87 1.106-2.98 0-5.51-2.017-6.417-4.73H1.96v2.98C3.846 21.305 7.69 24 12 24z"/>
  <path fill="#FBBC05" d="M5.643 14.704c-.24-.695-.375-1.44-.375-2.204s.135-1.51.375-2.204V7.316H1.96C1.011 9.128.54 11.022.54 12.5c0 1.478.47 3.372 1.42 5.184l3.683-2.98z"/>
  <path fill="#EA4335" d="M12 4.75c1.68 0 3.19.58 4.376 1.72l3.29-3.29C17.708 1.24 15.105 0 12 0 7.69 0 3.846 2.695 1.96 6.816l3.683 2.88C6.49 6.767 9.02 4.75 12 4.75z"/>
</svg>
